<?xml version="1.0" encoding="UTF-8" standalone="no"?>
<!-- Created with Inkscape (http://www.inkscape.org/) -->
<svg
   xmlns:dc="http://purl.org/dc/elements/1.1/"
   xmlns:cc="http://creativecommons.org/ns#"
   xmlns:rdf="http://www.w3.org/1999/02/22-rdf-syntax-ns#"
   xmlns:svg="http://www.w3.org/2000/svg"
   xmlns="http://www.w3.org/2000/svg"
   xmlns:xlink="http://www.w3.org/1999/xlink"
   xmlns:sodipodi="http://sodipodi.sourceforge.net/DTD/sodipodi-0.dtd"
   xmlns:inkscape="http://www.inkscape.org/namespaces/inkscape"
   width="61.871883"
   height="53.657501"
   id="svg3888"
   sodipodi:version="0.32"
   inkscape:version="0.46"
   version="1.0"
   sodipodi:docname="iso_bus.svg"
   inkscape:output_extension="org.inkscape.output.svg.inkscape"
   inkscape:export-filename="/home/roger/mis-dibujos/open/iso_bus_300.png"
   inkscape:export-xdpi="360"
   inkscape:export-ydpi="360">
  <defs
     id="defs3">
    <linearGradient
       inkscape:collect="always"
       id="linearGradient4633">
      <stop
         style="stop-color:#ffffff;stop-opacity:1;"
         offset="0"
         id="stop4635" />
      <stop
         style="stop-color:#2e3436;stop-opacity:0.08450704"
         offset="1"
         id="stop4637" />
    </linearGradient>
    <linearGradient
       inkscape:collect="always"
       xlink:href="#linearGradient3689"
       id="linearGradient3982"
       gradientUnits="userSpaceOnUse"
       gradientTransform="matrix(0.4279443,0,0,0.4279443,33.778724,217.06948)"
       x1="138.08673"
       y1="370.27557"
       x2="146.77179"
       y2="382.97778" />
    <linearGradient
       inkscape:collect="always"
       xlink:href="#linearGradient3689"
       id="linearGradient3980"
       gradientUnits="userSpaceOnUse"
       gradientTransform="matrix(0.4279443,0,0,0.4279443,33.778724,217.06948)"
       x1="138.08673"
       y1="370.27557"
       x2="146.77179"
       y2="382.97778" />
    <linearGradient
       inkscape:collect="always"
       id="linearGradient3689">
      <stop
         style="stop-color:#d3d7cf;stop-opacity:1"
         offset="0"
         id="stop3691" />
      <stop
         style="stop-color:#000000;stop-opacity:1"
         offset="1"
         id="stop3693" />
    </linearGradient>
    <linearGradient
       inkscape:collect="always"
       xlink:href="#linearGradient3689"
       id="linearGradient3978"
       gradientUnits="userSpaceOnUse"
       gradientTransform="matrix(0.4279443,0,0,0.4279443,33.778724,217.06948)"
       x1="138.08673"
       y1="370.27557"
       x2="146.77179"
       y2="382.97778" />
    <inkscape:perspective
       sodipodi:type="inkscape:persp3d"
       inkscape:vp_x="0 : 526.18109 : 1"
       inkscape:vp_y="0 : 1000 : 0"
       inkscape:vp_z="744.09448 : 526.18109 : 1"
       inkscape:persp3d-origin="372.04724 : 350.78739 : 1"
       id="perspective3894" />
    <linearGradient
       inkscape:collect="always"
       xlink:href="#linearGradient4633"
       id="linearGradient4639"
       x1="5.5640569"
       y1="34.065929"
       x2="45.189056"
       y2="57.190929"
       gradientUnits="userSpaceOnUse"
       gradientTransform="translate(44.345563,-27.914475)" />
    <linearGradient
       inkscape:collect="always"
       xlink:href="#linearGradient4633"
       id="linearGradient4643"
       gradientUnits="userSpaceOnUse"
       gradientTransform="translate(10.581214,45.0943)"
       x1="5.5640569"
       y1="34.065929"
       x2="45.189056"
       y2="57.190929" />
  </defs>
  <sodipodi:namedview
     inkscape:document-units="mm"
     id="base"
     pagecolor="#ffffff"
     bordercolor="#666666"
     borderopacity="1.0"
     inkscape:pageopacity="0.0"
     inkscape:pageshadow="2"
     inkscape:zoom="1"
     inkscape:cx="32.155085"
     inkscape:cy="41.043724"
     inkscape:current-layer="layer1"
     showgrid="false"
     inkscape:window-width="1272"
     inkscape:window-height="944"
     inkscape:window-x="0"
     inkscape:window-y="0"
     showguides="true"
     inkscape:guide-bbox="true" />
  <metadata
     id="metadata4">
    <rdf:RDF>
      <cc:Work
         rdf:about="">
        <dc:format>image/svg+xml</dc:format>
        <dc:type
           rdf:resource="http://purl.org/dc/dcmitype/StillImage" />
      </cc:Work>
    </rdf:RDF>
  </metadata>
  <g
     inkscape:label="Layer 1"
     inkscape:groupmode="layer"
     id="layer1"
     transform="translate(-20.064057,-30.53343)">
    <path
       id="path3898"
       d="M 21.90098,58.27444 L 30.902891,52.84177 L 30.271577,50.21194 L 21.325487,54.39887 L 21.90098,58.27444 z"
       style="fill:#555753;fill-rule:evenodd;stroke:none;stroke-width:1px;stroke-linecap:butt;stroke-linejoin:miter;stroke-opacity:1" />
    <g
       transform="translate(-66.074825,-320.53474)"
       id="g3900">
      <path
         sodipodi:type="arc"
         style="fill:#cc0000;fill-opacity:1;fill-rule:nonzero;stroke:none;stroke-width:0.5;stroke-linecap:butt;stroke-linejoin:bevel;stroke-miterlimit:4;stroke-dasharray:none;stroke-dashoffset:0;stroke-opacity:1"
         id="path3902"
         sodipodi:cx="136.67287"
         sodipodi:cy="261.99792"
         sodipodi:rx="11.916239"
         sodipodi:ry="8.0419703"
         d="M 148.58911,261.99792 A 11.916239,8.0419703 0 1 1 124.75663,261.99792 A 11.916239,8.0419703 0 1 1 148.58911,261.99792 z"
         transform="matrix(-0.1831443,-0.2965999,0.2965999,-0.1831443,41.282386,467.87788)" />
      <path
         sodipodi:nodetypes="cccccsc"
         id="path3904"
         d="M 92.872153,375.5268 C 92.476334,375.52406 92.104708,375.61776 91.775546,375.82101 L 89.543816,377.10484 L 93.603737,384.36652 L 96.416067,382.68149 C 97.463533,381.73998 97.463529,379.68514 96.3492,377.88049 C 95.44569,376.41727 94.059609,375.53501 92.872153,375.5268 z"
         style="fill:url(#linearGradient3978);fill-opacity:1;fill-rule:evenodd;stroke:#000000;stroke-width:0.21397215;stroke-linecap:butt;stroke-linejoin:miter;stroke-miterlimit:4;stroke-dasharray:none;stroke-opacity:1" />
      <path
         transform="matrix(-0.1831443,-0.2965999,0.2965999,-0.1831443,38.893374,469.25718)"
         d="M 148.58911,261.99792 A 11.916239,8.0419703 0 1 1 124.75663,261.99792 A 11.916239,8.0419703 0 1 1 148.58911,261.99792 z"
         sodipodi:ry="8.0419703"
         sodipodi:rx="11.916239"
         sodipodi:cy="261.99792"
         sodipodi:cx="136.67287"
         id="path3906"
         style="fill:#555753;fill-opacity:1;fill-rule:nonzero;stroke:#000000;stroke-width:0.61382592;stroke-linecap:butt;stroke-linejoin:bevel;stroke-miterlimit:4;stroke-dasharray:none;stroke-dashoffset:0;stroke-opacity:1"
         sodipodi:type="arc" />
      <path
         transform="matrix(-0.1000696,-0.1620614,0.1620614,-0.1000696,62.785899,428.93175)"
         d="M 148.58911,261.99792 A 11.916239,8.0419703 0 1 1 124.75663,261.99792 A 11.916239,8.0419703 0 1 1 148.58911,261.99792 z"
         sodipodi:ry="8.0419703"
         sodipodi:rx="11.916239"
         sodipodi:cy="261.99792"
         sodipodi:cx="136.67287"
         id="path3908"
         style="fill:#d3d7cf;fill-opacity:1;fill-rule:nonzero;stroke:none;stroke-width:0.5;stroke-linecap:butt;stroke-linejoin:bevel;stroke-miterlimit:4;stroke-dasharray:none;stroke-dashoffset:0;stroke-opacity:1"
         sodipodi:type="arc" />
    </g>
    <g
       id="g3910"
       transform="translate(-59.09349,-316.13203)">
      <path
         transform="matrix(-0.1831443,-0.2965999,0.2965999,-0.1831443,41.282386,467.87788)"
         d="M 148.58911,261.99792 A 11.916239,8.0419703 0 1 1 124.75663,261.99792 A 11.916239,8.0419703 0 1 1 148.58911,261.99792 z"
         sodipodi:ry="8.0419703"
         sodipodi:rx="11.916239"
         sodipodi:cy="261.99792"
         sodipodi:cx="136.67287"
         id="path3912"
         style="fill:#cc0000;fill-opacity:1;fill-rule:nonzero;stroke:none;stroke-width:0.5;stroke-linecap:butt;stroke-linejoin:bevel;stroke-miterlimit:4;stroke-dasharray:none;stroke-dashoffset:0;stroke-opacity:1"
         sodipodi:type="arc" />
      <path
         style="fill:url(#linearGradient3980);fill-opacity:1;fill-rule:evenodd;stroke:#000000;stroke-width:0.21397215;stroke-linecap:butt;stroke-linejoin:miter;stroke-miterlimit:4;stroke-dasharray:none;stroke-opacity:1"
         d="M 92.872153,375.5268 C 92.476334,375.52406 92.104708,375.61776 91.775546,375.82101 L 89.543816,377.10484 L 93.603737,384.36652 L 96.416067,382.68149 C 97.463533,381.73998 97.463529,379.68514 96.3492,377.88049 C 95.44569,376.41727 94.059609,375.53501 92.872153,375.5268 z"
         id="path3914"
         sodipodi:nodetypes="cccccsc" />
      <path
         sodipodi:type="arc"
         style="fill:#555753;fill-opacity:1;fill-rule:nonzero;stroke:#000000;stroke-width:0.61382592;stroke-linecap:butt;stroke-linejoin:bevel;stroke-miterlimit:4;stroke-dasharray:none;stroke-dashoffset:0;stroke-opacity:1"
         id="path3916"
         sodipodi:cx="136.67287"
         sodipodi:cy="261.99792"
         sodipodi:rx="11.916239"
         sodipodi:ry="8.0419703"
         d="M 148.58911,261.99792 A 11.916239,8.0419703 0 1 1 124.75663,261.99792 A 11.916239,8.0419703 0 1 1 148.58911,261.99792 z"
         transform="matrix(-0.1831443,-0.2965999,0.2965999,-0.1831443,38.893374,469.25718)" />
      <path
         sodipodi:type="arc"
         style="fill:#d3d7cf;fill-opacity:1;fill-rule:nonzero;stroke:none;stroke-width:0.5;stroke-linecap:butt;stroke-linejoin:bevel;stroke-miterlimit:4;stroke-dasharray:none;stroke-dashoffset:0;stroke-opacity:1"
         id="path3918"
         sodipodi:cx="136.67287"
         sodipodi:cy="261.99792"
         sodipodi:rx="11.916239"
         sodipodi:ry="8.0419703"
         d="M 148.58911,261.99792 A 11.916239,8.0419703 0 1 1 124.75663,261.99792 A 11.916239,8.0419703 0 1 1 148.58911,261.99792 z"
         transform="matrix(-0.1000696,-0.1620614,0.1620614,-0.1000696,62.785899,428.93175)" />
    </g>
    <g
       transform="translate(-38.18583,-304.28255)"
       id="g3920">
      <path
         sodipodi:type="arc"
         style="fill:#cc0000;fill-opacity:1;fill-rule:nonzero;stroke:none;stroke-width:0.5;stroke-linecap:butt;stroke-linejoin:bevel;stroke-miterlimit:4;stroke-dasharray:none;stroke-dashoffset:0;stroke-opacity:1"
         id="path3922"
         sodipodi:cx="136.67287"
         sodipodi:cy="261.99792"
         sodipodi:rx="11.916239"
         sodipodi:ry="8.0419703"
         d="M 148.58911,261.99792 A 11.916239,8.0419703 0 1 1 124.75663,261.99792 A 11.916239,8.0419703 0 1 1 148.58911,261.99792 z"
         transform="matrix(-0.1831443,-0.2965999,0.2965999,-0.1831443,41.282386,467.87788)" />
      <path
         sodipodi:nodetypes="cccccsc"
         id="path3924"
         d="M 92.872153,375.5268 C 92.476334,375.52406 92.104708,375.61776 91.775546,375.82101 L 89.543816,377.10484 L 93.603737,384.36652 L 96.416067,382.68149 C 97.463533,381.73998 97.463529,379.68514 96.3492,377.88049 C 95.44569,376.41727 94.059609,375.53501 92.872153,375.5268 z"
         style="fill:url(#linearGradient3982);fill-opacity:1;fill-rule:evenodd;stroke:#000000;stroke-width:0.21397215;stroke-linecap:butt;stroke-linejoin:miter;stroke-miterlimit:4;stroke-dasharray:none;stroke-opacity:1" />
      <path
         transform="matrix(-0.1831443,-0.2965999,0.2965999,-0.1831443,38.893374,469.25718)"
         d="M 148.58911,261.99792 A 11.916239,8.0419703 0 1 1 124.75663,261.99792 A 11.916239,8.0419703 0 1 1 148.58911,261.99792 z"
         sodipodi:ry="8.0419703"
         sodipodi:rx="11.916239"
         sodipodi:cy="261.99792"
         sodipodi:cx="136.67287"
         id="path3926"
         style="fill:#555753;fill-opacity:1;fill-rule:nonzero;stroke:#000000;stroke-width:0.61382592;stroke-linecap:butt;stroke-linejoin:bevel;stroke-miterlimit:4;stroke-dasharray:none;stroke-dashoffset:0;stroke-opacity:1"
         sodipodi:type="arc" />
      <path
         transform="matrix(-0.1000696,-0.1620614,0.1620614,-0.1000696,62.785899,428.93175)"
         d="M 148.58911,261.99792 A 11.916239,8.0419703 0 1 1 124.75663,261.99792 A 11.916239,8.0419703 0 1 1 148.58911,261.99792 z"
         sodipodi:ry="8.0419703"
         sodipodi:rx="11.916239"
         sodipodi:cy="261.99792"
         sodipodi:cx="136.67287"
         id="path3928"
         style="fill:#d3d7cf;fill-opacity:1;fill-rule:nonzero;stroke:none;stroke-width:0.5;stroke-linecap:butt;stroke-linejoin:bevel;stroke-miterlimit:4;stroke-dasharray:none;stroke-dashoffset:0;stroke-opacity:1"
         sodipodi:type="arc" />
    </g>
    <path
       sodipodi:nodetypes="cccssscssccsscccc"
       id="path3930"
       d="M 20.31718,39.62843 L 20.31718,57.34718 L 21.69218,58.15968 C 21.789166,57.13972 22.218138,56.28231 22.97343,55.81593 C 23.382398,55.5634 23.825396,55.46878 24.31718,55.47218 C 25.792531,55.48239 27.507116,56.56045 28.62968,58.37843 C 29.158748,59.23525 29.499026,60.15039 29.62968,61.00343 C 29.802259,60.78957 29.986922,60.58697 30.22343,60.44093 C 31.85931,59.43082 34.414178,60.57946 35.91093,63.00343 C 36.731763,64.33275 37.043468,65.74682 36.91093,66.94093 L 50.230936,74.41852 C 50.39692,73.5983 50.804319,72.91077 51.449686,72.51227 C 53.085566,71.50216 55.640434,72.6508 57.137186,75.07477 C 57.943191,76.38008 58.251201,77.7993 58.137186,78.98102 L 66.34843,83.94093 L 66.34843,66.22218 L 20.31718,39.62843 z"
       style="fill:#babdb6;fill-rule:evenodd;stroke:#000000;stroke-width:0.5;stroke-linecap:butt;stroke-linejoin:bevel;stroke-miterlimit:4;stroke-dasharray:none;stroke-opacity:1" />
    <path
       id="path3932"
       d="M 81.68594,75.07477 L 81.68594,57.35823 L 66.34297,66.2165 L 66.34297,83.93303 L 81.68594,75.07477 z"
       style="fill:#888a85;fill-rule:evenodd;stroke:#000000;stroke-width:0.5;stroke-linecap:butt;stroke-linejoin:bevel;stroke-miterlimit:4;stroke-dasharray:none;stroke-opacity:1" />
    <path
       sodipodi:nodetypes="ccccc"
       id="path3934"
       d="M 35.657029,30.78343 L 20.314059,39.6417 L 66.34297,66.2165 L 81.68594,57.35823 L 35.657029,30.78343 z"
       style="fill:#eeeeec;fill-rule:evenodd;stroke:#000000;stroke-width:0.5;stroke-linecap:butt;stroke-linejoin:bevel;stroke-miterlimit:4;stroke-dasharray:none;stroke-opacity:1" />
    <path
       sodipodi:nodetypes="ccccc"
       style="fill:#729fcf;fill-rule:evenodd;stroke:#000000;stroke-width:0.5;stroke-linecap:butt;stroke-linejoin:bevel;stroke-miterlimit:4;stroke-dasharray:none;stroke-opacity:1"
       d="M 81.68594,69.07477 L 81.68594,57.35823 L 66.34297,66.2165 L 66.34297,77.93303 L 81.68594,69.07477 z"
       id="path3936" />
    <path
       style="fill:#729fcf;fill-rule:evenodd;stroke:#000000;stroke-width:0.5;stroke-linecap:butt;stroke-linejoin:bevel;stroke-miterlimit:4;stroke-dasharray:none;stroke-opacity:1"
       d="M 20.314057,46.23323 L 35.657029,55.0915 L 35.657029,49.37496 L 20.314057,40.5167 L 20.314057,46.23323 z"
       id="path3938"
       sodipodi:nodetypes="ccccc" />
    <path
       sodipodi:nodetypes="ccccc"
       id="path3940"
       d="M 44.15848,59.99981 L 58.394318,68.21888 L 58.394318,62.50234 L 44.15848,54.28328 L 44.15848,59.99981 z"
       style="fill:#729fcf;fill-rule:evenodd;stroke:#000000;stroke-width:0.5;stroke-linecap:butt;stroke-linejoin:bevel;stroke-miterlimit:4;stroke-dasharray:none;stroke-opacity:1" />
    <path
       sodipodi:nodetypes="ccccc"
       id="path3942"
       d="M 37.72905,65.89522 L 42.688089,68.75833 L 42.586778,53.37586 L 37.627739,50.51275 L 37.72905,65.89522 z"
       style="fill:#babdb6;fill-opacity:1;fill-rule:evenodd;stroke:#000000;stroke-width:0.5;stroke-linecap:butt;stroke-linejoin:bevel;stroke-miterlimit:4;stroke-dasharray:none;stroke-opacity:1" />
    <path
       style="fill:#729fcf;fill-rule:evenodd;stroke:#000000;stroke-width:0.5;stroke-linecap:butt;stroke-linejoin:bevel;stroke-miterlimit:4;stroke-dasharray:none;stroke-opacity:1"
       d="M 38.418876,56.68605 L 41.794217,58.63481 L 41.794217,53.62538 L 38.418876,51.67663 L 38.418876,56.68605 z"
       id="path3944"
       sodipodi:nodetypes="ccccc" />
    <path
       style="fill:#babdb6;fill-opacity:1;fill-rule:evenodd;stroke:#000000;stroke-width:0.5;stroke-linecap:butt;stroke-linejoin:bevel;stroke-miterlimit:4;stroke-dasharray:none;stroke-opacity:1"
       d="M 60.30709,78.93066 L 65.26613,81.79377 L 65.16482,66.4113 L 59.34753,63.05268 L 59.29712,70.55282 L 60.24244,71.11487 L 60.30709,78.93066 z"
       id="path3946"
       sodipodi:nodetypes="ccccccc" />
    <path
       sodipodi:nodetypes="ccccc"
       id="path3948"
       d="M 60.20578,69.26472 L 64.37226,71.67025 L 64.37226,66.66082 L 60.20578,64.2553 L 60.20578,69.26472 z"
       style="fill:#729fcf;fill-rule:evenodd;stroke:#000000;stroke-width:0.5;stroke-linecap:butt;stroke-linejoin:bevel;stroke-miterlimit:4;stroke-dasharray:none;stroke-opacity:1" />
    <path
       id="path3950"
       d="M 25.263747,49.11561 L 25.263747,43.49061"
       style="fill:none;fill-rule:evenodd;stroke:#000000;stroke-width:0.5;stroke-linecap:butt;stroke-linejoin:miter;stroke-miterlimit:4;stroke-dasharray:none;stroke-opacity:1" />
    <path
       style="fill:none;fill-rule:evenodd;stroke:#000000;stroke-width:0.5;stroke-linecap:butt;stroke-linejoin:miter;stroke-miterlimit:4;stroke-dasharray:none;stroke-opacity:1"
       d="M 30.576247,52.17811 L 30.576247,46.55311"
       id="path3952" />
    <path
       id="path3954"
       d="M 48.770038,62.59301 L 48.770038,56.96801"
       style="fill:none;fill-rule:evenodd;stroke:#000000;stroke-width:0.5;stroke-linecap:butt;stroke-linejoin:miter;stroke-miterlimit:4;stroke-dasharray:none;stroke-opacity:1" />
    <path
       style="fill:none;fill-rule:evenodd;stroke:#000000;stroke-width:0.5;stroke-linecap:butt;stroke-linejoin:miter;stroke-miterlimit:4;stroke-dasharray:none;stroke-opacity:1"
       d="M 53.582538,65.40551 L 53.582538,59.78051"
       id="path3956" />
    <path
       sodipodi:nodetypes="ccccc"
       id="path3958"
       d="M 69.49995,75.60044 L 70.3975,75.14896 L 76.83652,60.6797 L 75.151,61.65284 L 69.49995,75.60044 z"
       style="fill:#ffffff;fill-rule:evenodd;stroke:none;stroke-width:1px;stroke-linecap:butt;stroke-linejoin:miter;stroke-opacity:1" />
    <g
       id="g3962"
       transform="translate(-41.05782,-304.05907)">
      <path
         sodipodi:type="arc"
         style="opacity:1;fill:#d3d7cf;fill-opacity:1;fill-rule:nonzero;stroke:none;stroke-width:6;stroke-linecap:round;stroke-linejoin:round;stroke-miterlimit:4;stroke-dasharray:none;stroke-dashoffset:0;stroke-opacity:1"
         id="path3964"
         sodipodi:cx="107.47261"
         sodipodi:cy="374.48795"
         sodipodi:rx="2.8865552"
         sodipodi:ry="2.587275"
         d="M 110.35917,374.48795 A 2.8865552,2.587275 0 1 1 104.58606,374.48795 A 2.8865552,2.587275 0 1 1 110.35917,374.48795 z"
         transform="matrix(0.6535663,-0.2358635,0,0.6535663,40.109938,163.75036)" />
      <path
         transform="matrix(0.4392214,-0.1585092,0,0.4392214,63.146146,235.70648)"
         d="M 110.35917,374.48795 A 2.8865552,2.587275 0 1 1 104.58606,374.48795 A 2.8865552,2.587275 0 1 1 110.35917,374.48795 z"
         sodipodi:ry="2.587275"
         sodipodi:rx="2.8865552"
         sodipodi:cy="374.48795"
         sodipodi:cx="107.47261"
         id="path3966"
         style="opacity:1;fill:#eeeeec;fill-opacity:1;fill-rule:nonzero;stroke:none;stroke-width:6;stroke-linecap:round;stroke-linejoin:round;stroke-miterlimit:4;stroke-dasharray:none;stroke-dashoffset:0;stroke-opacity:1"
         sodipodi:type="arc" />
      <path
         sodipodi:type="arc"
         style="opacity:1;fill:#ffffff;fill-opacity:1;fill-rule:nonzero;stroke:none;stroke-width:6;stroke-linecap:round;stroke-linejoin:round;stroke-miterlimit:4;stroke-dasharray:none;stroke-dashoffset:0;stroke-opacity:1"
         id="path3968"
         sodipodi:cx="107.47261"
         sodipodi:cy="374.48795"
         sodipodi:rx="2.8865552"
         sodipodi:ry="2.587275"
         d="M 110.35917,374.48795 A 2.8865552,2.587275 0 1 1 104.58606,374.48795 A 2.8865552,2.587275 0 1 1 110.35917,374.48795 z"
         transform="matrix(0.1459776,-5.2681369e-2,0,0.1459776,94.171918,333.89184)" />
    </g>
    <g
       transform="translate(-31.243168,-309.97146)"
       id="g3970">
      <path
         transform="matrix(0.6535663,-0.2358635,0,0.6535663,40.109938,163.75036)"
         d="M 110.35917,374.48795 A 2.8865552,2.587275 0 1 1 104.58606,374.48795 A 2.8865552,2.587275 0 1 1 110.35917,374.48795 z"
         sodipodi:ry="2.587275"
         sodipodi:rx="2.8865552"
         sodipodi:cy="374.48795"
         sodipodi:cx="107.47261"
         id="path3972"
         style="opacity:1;fill:#d3d7cf;fill-opacity:1;fill-rule:nonzero;stroke:none;stroke-width:6;stroke-linecap:round;stroke-linejoin:round;stroke-miterlimit:4;stroke-dasharray:none;stroke-dashoffset:0;stroke-opacity:1"
         sodipodi:type="arc" />
      <path
         sodipodi:type="arc"
         style="opacity:1;fill:#eeeeec;fill-opacity:1;fill-rule:nonzero;stroke:none;stroke-width:6;stroke-linecap:round;stroke-linejoin:round;stroke-miterlimit:4;stroke-dasharray:none;stroke-dashoffset:0;stroke-opacity:1"
         id="path3974"
         sodipodi:cx="107.47261"
         sodipodi:cy="374.48795"
         sodipodi:rx="2.8865552"
         sodipodi:ry="2.587275"
         d="M 110.35917,374.48795 A 2.8865552,2.587275 0 1 1 104.58606,374.48795 A 2.8865552,2.587275 0 1 1 110.35917,374.48795 z"
         transform="matrix(0.4392214,-0.1585092,0,0.4392214,63.146146,235.70648)" />
      <path
         transform="matrix(0.1459776,-5.2681369e-2,0,0.1459776,94.171918,333.89184)"
         d="M 110.35917,374.48795 A 2.8865552,2.587275 0 1 1 104.58606,374.48795 A 2.8865552,2.587275 0 1 1 110.35917,374.48795 z"
         sodipodi:ry="2.587275"
         sodipodi:rx="2.8865552"
         sodipodi:cy="374.48795"
         sodipodi:cx="107.47261"
         id="path3976"
         style="opacity:1;fill:#ffffff;fill-opacity:1;fill-rule:nonzero;stroke:none;stroke-width:6;stroke-linecap:round;stroke-linejoin:round;stroke-miterlimit:4;stroke-dasharray:none;stroke-dashoffset:0;stroke-opacity:1"
         sodipodi:type="arc" />
    </g>
    <path
       style="fill:#ffffff;fill-rule:evenodd;stroke:none;stroke-width:1px;stroke-linecap:butt;stroke-linejoin:miter;stroke-opacity:1"
       d="M 71.62127,74.363003 L 71.70632,74.286523 L 78.14534,59.817263 L 77.27232,60.415403 L 71.62127,74.363003 z"
       id="path4090"
       sodipodi:nodetypes="ccccc" />
    <path
       style="fill:#ffffff;fill-rule:evenodd;stroke:none;stroke-width:1px;stroke-linecap:butt;stroke-linejoin:miter;stroke-opacity:1"
       d="M 48.914079,62.43919 L 49.365559,61.54164 L 48.914079,62.43919 z"
       id="path4112"
       sodipodi:nodetypes="ccc" />
  </g>
</svg>
